<svg id="visual" viewBox="0 0 3440 1440" width="3440" height="1440" xmlns="http://www.w3.org/2000/svg" xmlns:xlink="http://www.w3.org/1999/xlink" version="1.1"><path d="M0 1166L63.7 1166C127.3 1166 254.7 1166 382 1170C509.3 1174 636.7 1182 764.2 1178.8C891.7 1175.7 1019.3 1161.3 1146.8 1164.3C1274.3 1167.3 1401.7 1187.7 1529 1176.7C1656.3 1165.7 1783.7 1123.3 1911 1119.8C2038.3 1116.3 2165.7 1151.7 2293.2 1173C2420.7 1194.3 2548.3 1201.7 2675.8 1189.5C2803.3 1177.3 2930.7 1145.7 3058 1142.8C3185.3 1140 3312.7 1166 3376.3 1179L3440 1192L3440 1441L3376.3 1441C3312.7 1441 3185.3 1441 3058 1441C2930.7 1441 2803.3 1441 2675.8 1441C2548.3 1441 2420.7 1441 2293.2 1441C2165.7 1441 2038.3 1441 1911 1441C1783.7 1441 1656.3 1441 1529 1441C1401.7 1441 1274.3 1441 1146.8 1441C1019.3 1441 891.7 1441 764.2 1441C636.7 1441 509.3 1441 382 1441C254.7 1441 127.3 1441 63.7 1441L0 1441Z" fill="#1c9474"></path><path d="M0 1167L63.7 1179.8C127.3 1192.7 254.7 1218.3 382 1231C509.3 1243.7 636.7 1243.3 764.2 1229.5C891.7 1215.7 1019.3 1188.3 1146.8 1185.8C1274.3 1183.3 1401.7 1205.7 1529 1222.3C1656.3 1239 1783.7 1250 1911 1242C2038.3 1234 2165.7 1207 2293.2 1198.8C2420.7 1190.7 2548.3 1201.3 2675.8 1203.7C2803.3 1206 2930.7 1200 3058 1197.5C3185.3 1195 3312.7 1196 3376.3 1196.5L3440 1197L3440 1441L3376.3 1441C3312.7 1441 3185.3 1441 3058 1441C2930.7 1441 2803.3 1441 2675.8 1441C2548.3 1441 2420.7 1441 2293.2 1441C2165.7 1441 2038.3 1441 1911 1441C1783.7 1441 1656.3 1441 1529 1441C1401.7 1441 1274.3 1441 1146.8 1441C1019.3 1441 891.7 1441 764.2 1441C636.7 1441 509.3 1441 382 1441C254.7 1441 127.3 1441 63.7 1441L0 1441Z" fill="#1d9f7c"></path><path d="M0 1221L63.7 1222.3C127.3 1223.7 254.7 1226.3 382 1228.8C509.3 1231.3 636.7 1233.7 764.2 1240C891.7 1246.3 1019.3 1256.7 1146.8 1266.7C1274.3 1276.7 1401.7 1286.3 1529 1292.8C1656.3 1299.3 1783.7 1302.7 1911 1288C2038.3 1273.3 2165.7 1240.7 2293.2 1236C2420.7 1231.3 2548.3 1254.7 2675.8 1266.5C2803.3 1278.3 2930.7 1278.7 3058 1269C3185.3 1259.3 3312.7 1239.7 3376.3 1229.8L3440 1220L3440 1441L3376.3 1441C3312.7 1441 3185.3 1441 3058 1441C2930.7 1441 2803.3 1441 2675.8 1441C2548.3 1441 2420.7 1441 2293.2 1441C2165.7 1441 2038.3 1441 1911 1441C1783.7 1441 1656.3 1441 1529 1441C1401.7 1441 1274.3 1441 1146.8 1441C1019.3 1441 891.7 1441 764.2 1441C636.7 1441 509.3 1441 382 1441C254.7 1441 127.3 1441 63.7 1441L0 1441Z" fill="#1dab85"></path><path d="M0 1339L63.7 1339.7C127.3 1340.3 254.7 1341.7 382 1337C509.3 1332.3 636.7 1321.7 764.2 1318.3C891.7 1315 1019.3 1319 1146.8 1317C1274.3 1315 1401.7 1307 1529 1307.8C1656.3 1308.7 1783.7 1318.3 1911 1313.5C2038.3 1308.7 2165.7 1289.3 2293.2 1282.2C2420.7 1275 2548.3 1280 2675.8 1283.5C2803.3 1287 2930.7 1289 3058 1287.2C3185.3 1285.3 3312.7 1279.7 3376.3 1276.8L3440 1274L3440 1441L3376.3 1441C3312.7 1441 3185.3 1441 3058 1441C2930.7 1441 2803.3 1441 2675.8 1441C2548.3 1441 2420.7 1441 2293.2 1441C2165.7 1441 2038.3 1441 1911 1441C1783.7 1441 1656.3 1441 1529 1441C1401.7 1441 1274.3 1441 1146.8 1441C1019.3 1441 891.7 1441 764.2 1441C636.7 1441 509.3 1441 382 1441C254.7 1441 127.3 1441 63.7 1441L0 1441Z" fill="#1eb78e"></path><path d="M0 1374L63.7 1377.8C127.3 1381.7 254.7 1389.3 382 1383.2C509.3 1377 636.7 1357 764.2 1349.2C891.7 1341.3 1019.3 1345.7 1146.8 1356.3C1274.3 1367 1401.7 1384 1529 1384.8C1656.3 1385.7 1783.7 1370.3 1911 1369C2038.3 1367.7 2165.7 1380.3 2293.2 1383.7C2420.7 1387 2548.3 1381 2675.8 1374.8C2803.3 1368.7 2930.7 1362.3 3058 1360.8C3185.3 1359.3 3312.7 1362.7 3376.3 1364.3L3440 1366L3440 1441L3376.3 1441C3312.7 1441 3185.3 1441 3058 1441C2930.7 1441 2803.3 1441 2675.8 1441C2548.3 1441 2420.7 1441 2293.2 1441C2165.7 1441 2038.3 1441 1911 1441C1783.7 1441 1656.3 1441 1529 1441C1401.7 1441 1274.3 1441 1146.8 1441C1019.3 1441 891.7 1441 764.2 1441C636.7 1441 509.3 1441 382 1441C254.7 1441 127.3 1441 63.7 1441L0 1441Z" fill="#1ec397"></path></svg>